<mxfile host="app.diagrams.net" modified="2024-01-29T09:55:19.303Z" agent="Mozilla/5.0 (Macintosh; Intel Mac OS X 10_15_7) AppleWebKit/537.36 (KHTML, like Gecko) Chrome/120.0.0.0 Safari/537.36" etag="Uj30AkwIlbp0n4Y8r1s-" version="23.0.2" type="github">
  <diagram name="Page-1" id="KBd18aul3jT7zM6rYeai">
    <mxGraphModel dx="984" dy="672" grid="1" gridSize="10" guides="1" tooltips="1" connect="1" arrows="1" fold="1" page="1" pageScale="1" pageWidth="850" pageHeight="1100" math="0" shadow="0">
      <root>
        <mxCell id="0" />
        <mxCell id="1" parent="0" />
      </root>
    </mxGraphModel>
  </diagram>
</mxfile>
